<svg xmlns="http://www.w3.org/2000/svg" width="134px" height="141px" viewBox="0 0 134.25396728515625 141.54541015625" fill="none">
              <path fill-rule="evenodd" clip-rule="evenodd" d="M92.42237751208451 76.54946607886106L101.70461695651937
    72.1108502496769C99.04948273363077 74.19552988294865 95.92795322290584 75.6456224552424 92.42237751208451
    76.54946607886106ZM77.19503301820436 91.96247033419131C80.40764561082351 89.81540502838929 83.70111003504189
    87.81731670858957 86.51495340884752 85.28196297695911C84.37936706679108 88.59763670059829 80.8745399840401
    90.40507440514547 77.19503301820436 91.96247033419131ZM71.21549107752237 75.33918403177367C69.69852106427615
    74.13563963731957 70.47983922704533 73.55670059623861 71.15210723423161 72.98949006159332C73.4241934277843
    71.07000768918175 76.69170541223009 71.78394932561824 79.81697806330685 72.49439736439305C82.09480373873232
    73.0116993610141 84.47144831944576 73.81273139630285 86.54340127552132 75.46021223648242C87.33370297513487
    76.08806164482714 87.8295443004055 76.75034794440855 86.65020554689315 77.06152767898956C83.42985713088025
    77.91047191078158 80.05079956395033 78.2820409763719 76.30067201681031 77.48724750833618C74.51394635554317
    77.10869124742246 72.76490164048433 76.43392781333498 71.21549107752237 75.33918403177367ZM84.72598186336928
    83.85208336256517C83.35199981156246 85.7972686320592 81.24136773851812 87.02227369786372 79.2123361251434
    88.3081671800578C70.44440416504814 93.86373609022402 59.83160309688752 95.92920093635645 48.21738721327091
    96.18573082180093C40.45910497740565 96.3566675645339 32.55134667015785 95.79594513983177 24.571470525465045
    94.96571660979885C23.843529544112762 94.89060426007238 23.10246261726011 94.78679450098201 22.505781090911526
    95.07776127766321C21.835783922205362 95.40516128710212 21.59115722307964 95.82139849422413 22.72038780441568
    96.32672244171937C22.998228635596522 96.45174332947005 23.406106162599475 96.38561451658795 23.27427275940849
    96.82056742546905C22.820404514616218 98.32181624923763 24.159201047115964 98.89975711955812 25.313860028575345
    99.50315134427096C27.480389664206808 100.63657424280103 29.709554515058667 100.88636647561226 31.888810827886306
    101.32032121373287C37.99412228438934 102.53684182807326 44.09119883211837 103.5407520704305 50.05601775408323
    103.78854796172075C55.59337004787062 104.0183767793223 60.8799319380863 103.46788560491512 66.10510632653218
    102.76816790181554C69.43126084315644 102.32273419994935 72.79484676329886 101.82290019163678 75.4115514119088
    100.24653901814173C77.14986579129244 99.19945789039356 79.32138628072633 98.97536855466481 81.03973724490027
    97.97170785499772C84.33370075449889 96.04748417147385 87.58224749449549 94.09057039554412 90.1428050378282
    91.36581376211173C92.24994351321082 89.12267452061309 93.44749888310203 86.36173419711315 93.55330498371337
    83.01137403954715C93.58774187495008 81.906648550381 94.07210423647516 81.23413100050462 95.01412789168234
    80.84709028812678C97.55172750752389 79.8035027580403 100.03742224382025 78.66708534722878 102.47645249706396
    77.50321824050393C106.44567852613031 75.61068647862545 109.88961719249171 73.02517466628065 113.16436591495103
    70.29792260594705C118.38754396187595 65.94839351713613 122.9137492752926 61.022171271455335 125.7475560643079
    54.735192736544136C127.4132535208663 51.039964581230755 128.76103359021042 47.22320913582841 127.54950382967243
    42.45394924223379C127.23058827169767 41.19825042554437 126.70205685402115 40.03039063577758 125.4802958431882
    39.08761835250004C124.95401030972279 38.68086376760263 124.4634093809447 38.48721864006865 123.93862110362001
    38.69309135941857C123.31875706135916 38.937144110357 123.71053908484932 39.31994259700279 123.92988710946575
    39.8414868193559C125.43487907358616 43.41868128224199 123.94485967087303 45.97025528873032 122.78748067409133
    48.6039288402685C119.59807555165344 55.8626266105113 114.06496548359812 61.17264551359836 107.91822994053497
    65.96211836509279C103.21435023175208 69.62715185490151 98.03359444214774 72.70650865099599 92.29261531322153
    75.086397286681C91.83670081837026 75.27555064579279 91.47561254576502 75.75292581199447 90.8582439304054
    74.78794422929614C88.70718594156145 71.42585556529446 85.56993524135888 69.14603354834802 81.9964839188246
    67.56967237485297C76.48059229638763 65.13588251810181 71.19427994886206 64.16840550850226 66.81530482261685
    66.71199414890673C64.46211725477481 68.07848992000991 64.2467619132003 70.08680949010459 65.54238756030908
    73.05586841716554C68.84134192371015 80.62075506818694 76.28370311388208 83.96437757311966 82.68122906051693
    83.56810378120734C83.25392953434486 83.53192009113978 83.8263804654827 83.49623548645246 84.39783322586003
    83.46030133907502C84.50763200951332 83.59106170869848 84.61668216509624 83.72182207832194 84.72598186336928
    83.85208336256517Z" fill="#7ED328"></path>
              <path fill-rule="evenodd" clip-rule="evenodd" d="M14.629140757121828 90.08491113372008C11.789245126467566
    91.61485736685259 8.678870173991037 92.67815876945865 5.173544005859829 93.05621594499212C8.325093502206343
    92.06578100790144 11.477241901009144 91.07584515619101 14.629140757121828 90.08491113372008ZM23.654500956346023
    105.31350334105085C20.35130436721291 102.72774198601591 16.778726444094065 100.6161117422111 13.266737486136625
    98.39667905627395C12.74179948319786 98.065036821103 12.011013715178196 97.89909093217247 11.959807555165344
    97.10629380565771C11.910897187901606 96.3449390580982 12.593870576494067 96.3411959177464 13.090610255449146
    96.2551036896546C15.796875775543553 95.78246983456523 17.976331722523287 94.51853610910182 20.359115053413703
    93.54581870300974C21.86483069133546 92.93194368531181 23.590093988025764 92.6245070910826 25.102746912732886
    91.9422573762915C27.43073066887271 90.89068448012114 29.89746016071986 90.03125945534406 32.34771983501902
    89.15910775337078C33.58919471837154 88.71691810647616 34.38623407061836 87.66584429568606 36.01874234939065
    87.72897859628671C37.6200577918978 87.79061564074661 37.974657954559895 86.73854365919603 37.05708948298458
    84.47469237441733C36.5891969390075 83.31930971915659 35.61448319139445 82.21183926039912 34.16389153372045
    82.35782173411998C32.97107747494155 82.47835085344846 31.793735062950162 82.6939557377131 30.71645926969734
    83.04606047347399C23.588921137382194 85.37878554072611 16.498265414666953 87.77314765243814 9.376017587382377
    90.11460671384451C7.777447114466557 90.64014361923955 6.10785679194227 91.0508908871789 4.460051546265556
    91.49333007676363C1.4637774934200019 92.2981052524042 1.174722213745117 93.43177769362438 2.9514661674074083
    96.59797534588103C4.330738524244798 99.05597084357393 6.2867539464900934 100.74762073990492 8.895348457671098
    101.95890095775279C13.916521696942977 104.29112693962465 18.90495493527097 106.74512975427564 23.64005243458801
    109.85393258780441C24.58878878815945 110.47704068503681 25.477809575984914 111.20570534019045 26.4115983224181
    111.85925764561763C27.4921181706425 112.61661971013518 28.04635248540148 112.4666445533724 27.980223672519386
    111.31725092267457C27.835738454939264 108.77016868460844 27.486628231459832 108.28231272542166 23.654500956346023
    105.31350334105085Z" fill="#7ED328"></path>
            </svg>
