<svg xmlns="http://www.w3.org/2000/svg" width="90" height="90" viewBox="0 0 90 90" fill="none">
                <path fill-rule="evenodd" clip-rule="evenodd" d="M18.775625 1.75C15.323625 5.687 13.618625 10.565 13.884625
    15.75C13.996625 17.937 14.301625 18 24.749625 17.997L35.49975 17.994L35.57475 14.497L35.64975 11H29.77975C24.824625
    11 23.511625 10.603 21.366625 8.458C19.309625 6.401 19.055625 5.638 20.034625 4.458C21.974625 2.12 25.15075 2.747
    30.86675 6.596C34.53475 9.066 36.52975 9.87 37.23775 9.162C38.64175 7.758 26.58475 0 22.999625 0C21.519625 0 19.618625
    0.788 18.775625 1.75ZM58.01975 4.065C53.70075 6.857 52.05375 8.454 52.76175 9.162C53.46975 9.87 55.46475 9.066 59.13275
    6.596C64.84875 2.747 68.02475 2.12 69.96475 4.458C70.94375 5.638 70.68975 6.401 68.63275 8.458C66.48775 10.603 65.17475
    11 60.21975 11H54.34975L54.42475 14.497L54.49975 17.994L65.13275 17.997L75.76675 18L76.28675 15.279C76.89775 12.084
    74.54775 5.449 71.67375 2.25C68.73575 -1.019 65.14875 -0.542 58.01975 4.065ZM39.99975 10C38.88875 11.111 37.99975
    13.333 37.99975 15V18H44.99975H51.99975V15C51.99975 11.151 48.84875 8 44.99975 8C43.33275 8 41.11075 8.889 39.99975
    10ZM4.199625 22.2C2.606625 23.793 2.606625 37.207 4.199625 38.8C5.040625 39.641 10.577625 40 22.699625
    40H39.99975V30.5V21H22.699625C10.577625 21 5.040625 21.359 4.199625 22.2ZM49.99975 30.5V40H67.46475C83.70775 40
    85.00175 39.865 85.96475 38.066C87.39875 35.386 87.27675 23.677 85.79975 22.2C84.95875 21.359 79.42175 21 67.29975
    21H49.99975V30.5ZM6.999625 64.045C6.999625 85.057 7.003625 85.095 9.454625 87.545C11.827625 89.919 12.374625 90
    25.95475 90H39.99975V66.5V43H23.499625H6.999625V64.045ZM49.99975 66.5V90H64.04475C77.62475 90 78.17175 89.919
    80.54475 87.545C82.99575 85.095 82.99975 85.057 82.99975 64.045V43H66.49975H49.99975V66.5Z" fill="#FE5000"></path>
              </svg>