<svg xmlns="http://www.w3.org/2000/svg" viewBox="0 0 83 83" fill="none">
              <path d="M74.12475 26.3265C74.5715 26.8165 74.629 27.537 74.28325 28.11325C73.96625 28.6465 73.6925 29.1075 73.37525
     29.54C70.09 34.09325 68.28875 36.471 65.0465 41.05325C64.22525 42.206 62.23675 45.7365 61.473 46.94675C61.4585
     46.96125 61.4585 46.97575 61.44425 46.99C60.7525 48.0275 59.052 47.9555 58.5045 46.81725C58.5045 46.81725 58.5045
     46.80275 58.49025 46.80275C57.68325 45.03025 57.03475 43.20025 56.2855 41.399C54.22475 36.42775 51.35725 32.11925
     46.58775 29.295C44.8585 28.27175 44.82975 27.5225 46.16975 26.03825C46.67425 25.49075 47.1785 24.928775 47.726
     24.43885C53.0145 19.726875 56.66 13.905325 59.3835 7.42095C59.5565 7.0175 59.90225 6.700475 60.277 6.38345C60.76675
     5.98 61.473 6.037625 61.90525 6.49875C62.2655 6.8734 62.597 7.276875 62.79875 7.723575C63.24525 8.761075 63.3605
     9.92825 63.6345 11.0378C65.10425 17.075475 68.37525 21.888325 73.3465 25.5915C73.62025 25.79325 73.86525 26.05275
     74.12475 26.3265ZM60.88225 11.85915C59.1675 14.712275 57.7265 17.651875 55.76675 20.2168C53.76375 22.82495 51.2565
     25.044 48.96525 27.4505C54.78675 30.93775 58.15875 36.4565 60.1905 43.229C63.17325 37.06175 67.2945 32.1625
     71.81925 27.58025C64.672 22.133275 62.9715 19.669225 60.88225 11.85915Z" fill="#195A00"></path>
              <path d="M19.785375 76.05425C18.474075 72.33675 17.3357 68.547 15.89475 64.88675C14.482575 61.342 12.378775 58.18625
    9.352725 55.751C8.243175 54.85775 8.272 54.05075 9.1798 53.042C14.28085 47.49425 18.2003 41.21175 21.0102
    34.223C21.3128 33.47375 22.11975 32.27775 22.681725 32.27775C24.20915 31.9175 24.756725 34.90025 24.81435
    35.174C26.09675 42.206 30.4485 47.3215 35.3335 52.1055C36.9185 53.66175 37.04825 54.13725 35.492 55.63575C29.62725
    61.2555 25.7365 68.17225 22.393525 75.44925C21.341625 77.98525 19.943875 76.501 19.785375 76.05425ZM11.1107
    54.03625C14.2232 56.0105 16.2838 58.6475 17.782425 61.63025C19.2378 64.5555 20.304125 67.6535 21.514525
    70.622C24.310025 64.368 28.08525 58.58975 33.8205 54.19475C28.27275 49.82875 23.892125 44.843 22.552025
    37.69575C20.1456 44.1225 16.327025 49.4685 11.1107 54.03625Z" fill="#195A00"></path>
              <path d="M59.1675 60.54975C55.983 64.8295 54.03775 69.7145 52.25075 74.68575C52.1355 75.00275 51.761 76.804
    50.392 76.7895C50.003 76.7895 49.3545 76.17 49.1095 75.68C48.02875 73.47525 47.3515 71.01125 45.98275
    69.02275C44.36875 66.6595 42.14975 64.71425 40.2765 62.53825C40.0025 62.22125 39.90175 61.50075
    40.07475 61.11175C40.406 60.39125 40.997 59.815 41.458 59.152C43.80675 55.69375 46.11225 52.2065
    48.53325 48.806C49.0375 48.09975 50.03175 47.24975 50.6225 47.24975C52.09225 47.23525 52.3805
    48.388 52.64 49.20925C53.8215 52.98475 55.85325 56.1405 58.80725 58.7485C59.85925 59.7285 59.29725
    60.377 59.1675 60.54975ZM42.9855 61.544C46.415 63.97925 48.74925 67.49525 50.1615 71.42925C52.25075
    67.59625 54.3835 63.69125 56.57375 59.6565C53.63425 57.62475 51.588 53.835 50.6515 51.0395C48.0865 54.55525
    45.55025 58.028 42.9855 61.544Z" fill="#195A00"></path>
            </svg>